<svg xmlns="http://www.w3.org/2000/svg" xmlns:xlink="http://www.w3.org/1999/xlink" width="940" zoomAndPan="magnify" viewBox="0 0 705 591.000005" height="788" preserveAspectRatio="xMidYMid meet" version="1.0"><defs><g/><clipPath id="d0360ce8fc"><path d="M 0.59375 0 L 704.402344 0 L 704.402344 590 L 0.59375 590 Z M 0.59375 0 " clip-rule="nonzero"/></clipPath><clipPath id="4b218f6eaf"><path d="M 0.183594 0.292969 L 580.480469 0.292969 L 580.480469 73.609375 L 0.183594 73.609375 Z M 0.183594 0.292969 " clip-rule="nonzero"/></clipPath><clipPath id="7ea5bceabb"><rect x="0" width="581" y="0" height="74"/></clipPath></defs><g clip-path="url(#d0360ce8fc)"><path fill="#ffffff" d="M 0.59375 0 L 704.40625 0 L 704.40625 590 L 0.59375 590 Z M 0.59375 0 " fill-opacity="1" fill-rule="nonzero"/><path fill="#ffffff" d="M 0.59375 0 L 704.40625 0 L 704.40625 590 L 0.59375 590 Z M 0.59375 0 " fill-opacity="1" fill-rule="nonzero"/></g><g transform="matrix(1, 0, 0, 1, 79, 229)"><g clip-path="url(#7ea5bceabb)"><g clip-path="url(#4b218f6eaf)"><path fill="#eb2030" d="M 18.761719 0.796875 L 562.242188 0.796875 C 567.042969 0.796875 571.648438 2.703125 575.042969 6.097656 C 578.4375 9.492188 580.34375 14.097656 580.34375 18.898438 L 580.34375 55.097656 C 580.34375 59.898438 578.4375 64.503906 575.042969 67.898438 C 571.648438 71.292969 567.042969 73.199219 562.242188 73.199219 L 18.761719 73.199219 C 8.765625 73.199219 0.660156 65.097656 0.660156 55.097656 L 0.660156 18.898438 C 0.660156 8.902344 8.765625 0.796875 18.761719 0.796875 Z M 18.761719 0.796875 " fill-opacity="1" fill-rule="nonzero"/></g><g fill="#ffffff" fill-opacity="1"><g transform="translate(19.821539, 51.932234)"><g><path d="M 23.613281 -6.945312 C 23.613281 -7.617188 23.710938 -8.671875 23.710938 -9.246094 C 23.710938 -9.867188 23.664062 -10.777344 23.230469 -11.351562 C 22.703125 -12.070312 21.652344 -12.167969 21.460938 -12.167969 C 21.316406 -12.167969 21.21875 -12.167969 21.074219 -12.167969 C 20.644531 -12.117188 18.539062 -11.832031 17.960938 -11.734375 C 17.101562 -11.734375 15.808594 -11.878906 15.039062 -12.261719 C 13.125 -13.171875 12.835938 -15.28125 12.835938 -16.285156 C 12.835938 -17.4375 13.554688 -18.488281 14.226562 -19.015625 C 14.609375 -19.304688 15.183594 -19.6875 16.09375 -19.78125 C 16.957031 -19.878906 17.292969 -19.734375 18.441406 -19.832031 L 19.925781 -19.925781 C 20.644531 -19.972656 20.597656 -19.78125 21.699219 -19.78125 C 22.226562 -19.78125 22.65625 -19.878906 23.039062 -20.308594 C 24 -21.363281 23.328125 -23.089844 23.328125 -25.433594 L 23.328125 -26.632812 C 23.328125 -27.636719 23.472656 -27.78125 23.519531 -29.21875 C 23.519531 -29.457031 23.519531 -29.648438 23.519531 -29.890625 C 23.519531 -30.464844 23.421875 -30.703125 23.375 -30.847656 C 22.703125 -32.378906 18.679688 -32.09375 17.101562 -32.09375 C 12.644531 -32.09375 10.011719 -31.375 8.863281 -30.800781 C 7.761719 -30.273438 5.605469 -28.789062 4.261719 -27.351562 C 3.542969 -26.535156 2.730469 -25.53125 1.339844 -21.84375 C 1.148438 -21.269531 0.527344 -19.832031 0.527344 -17.339844 C 0.527344 -15.472656 1.101562 -11.015625 1.675781 -9.246094 C 2.25 -7.566406 2.96875 -6.851562 4.550781 -4.742188 C 6.035156 -2.730469 6.5625 -2.394531 7.855469 -1.675781 C 9.101562 -1.007812 11.59375 0.191406 17.386719 0.289062 C 17.578125 0.289062 17.722656 0.289062 17.914062 0.289062 C 21.269531 0.238281 22.226562 -0.0976562 23.089844 -0.910156 C 23.804688 -1.628906 23.855469 -2.15625 23.855469 -2.441406 C 23.855469 -2.539062 23.804688 -2.632812 23.804688 -2.730469 C 23.804688 -2.921875 23.804688 -3.066406 23.804688 -3.257812 C 23.855469 -4.023438 23.613281 -4.839844 23.613281 -5.605469 Z M 23.613281 -6.945312 "/></g></g></g><g fill="#ffffff" fill-opacity="1"><g transform="translate(44.489401, 51.932234)"><g><path d="M 3.6875 -13.363281 C 3.304688 -12.886719 3.351562 -12.644531 2.683594 -11.832031 C 2.394531 -11.542969 2.058594 -11.207031 1.675781 -10.585938 C 1.246094 -9.867188 0.863281 -9.484375 0.863281 -8.765625 C 0.863281 -7.902344 1.007812 -7.664062 0.957031 -5.03125 C 0.863281 -1.675781 0.765625 -0.046875 2.730469 -0.046875 C 3.160156 -0.046875 3.542969 -0.0976562 3.929688 -0.0976562 C 4.214844 -0.0976562 4.453125 -0.046875 4.742188 -0.046875 C 5.078125 -0.046875 5.414062 -0.0976562 5.746094 -0.0976562 C 6.417969 -0.0976562 7.089844 0 7.761719 0 C 9.773438 0 11.832031 -0.046875 13.84375 -0.046875 C 14.371094 -0.046875 14.945312 0 15.472656 0 C 17.578125 0.046875 18.441406 -0.0976562 20.023438 0 C 20.644531 0.046875 21.316406 0.0976562 21.9375 0.0976562 C 22.273438 0.0976562 22.609375 0.046875 22.847656 -0.046875 C 23.230469 -0.144531 23.421875 -0.335938 23.664062 -0.527344 C 23.902344 -0.71875 24.046875 -0.863281 24.140625 -1.246094 C 24.382812 -2.203125 24.382812 -3.878906 24.382812 -5.414062 C 24.382812 -7.808594 24.09375 -8.476562 24.140625 -9.003906 C 24.140625 -9.101562 24.140625 -9.246094 24.140625 -9.339844 C 24.09375 -9.628906 23.613281 -10.683594 22.894531 -10.824219 C 22.464844 -10.921875 22.5625 -10.96875 22.273438 -10.96875 C 22.179688 -10.96875 22.082031 -10.96875 21.984375 -10.96875 C 21.601562 -10.921875 21.269531 -10.921875 20.882812 -10.96875 C 20.550781 -10.96875 20.167969 -10.96875 19.832031 -11.015625 C 19.640625 -11.015625 19.398438 -11.066406 19.207031 -11.066406 C 18.730469 -11.066406 18.25 -11.015625 17.769531 -11.015625 C 16.621094 -11.015625 16.285156 -11.066406 16.140625 -11.113281 C 15.902344 -11.207031 15.757812 -11.304688 15.757812 -11.59375 C 15.757812 -12.117188 16.046875 -12.453125 16.335938 -12.886719 C 16.429688 -13.027344 16.574219 -13.21875 17.148438 -14.179688 C 18.730469 -16.765625 17.820312 -15.855469 18.730469 -17.003906 C 19.351562 -17.820312 20.023438 -18.585938 20.5 -19.449219 C 20.789062 -19.925781 21.027344 -20.5 21.363281 -20.933594 C 21.554688 -21.171875 21.792969 -21.410156 22.035156 -21.652344 C 22.464844 -22.082031 22.800781 -22.511719 23.183594 -22.992188 C 23.375 -23.230469 23.566406 -23.519531 23.664062 -25.003906 C 23.757812 -26.824219 24.046875 -28.644531 23.664062 -30.417969 C 23.613281 -30.753906 23.519531 -30.945312 23.183594 -31.230469 C 22.464844 -31.855469 21.84375 -31.996094 21.027344 -31.996094 C 19.257812 -31.996094 17.53125 -31.949219 15.757812 -31.949219 C 15.039062 -31.949219 14.320312 -32.046875 13.605469 -32.046875 C 12.023438 -32.046875 10.488281 -31.855469 8.910156 -31.855469 C 7.042969 -31.855469 6.324219 -32.046875 5.125 -32.09375 C 4.886719 -32.09375 4.644531 -32.09375 4.40625 -32.09375 C 3.019531 -32.046875 2.109375 -31.902344 1.4375 -30.945312 C 1.054688 -30.417969 0.957031 -29.746094 0.910156 -29.074219 C 0.910156 -28.738281 0.910156 -28.40625 0.910156 -28.070312 C 0.910156 -27.542969 0.957031 -27.0625 0.957031 -26.535156 C 0.957031 -25.242188 0.910156 -24 0.957031 -22.703125 C 1.007812 -22.179688 1.148438 -21.554688 1.484375 -21.269531 C 1.867188 -20.980469 2.539062 -20.980469 2.875 -20.980469 C 4.839844 -20.980469 4.359375 -21.171875 5.414062 -21.316406 C 5.652344 -21.363281 5.941406 -21.316406 6.179688 -21.363281 C 6.371094 -21.410156 6.609375 -21.460938 6.800781 -21.460938 C 7.328125 -21.460938 7.664062 -21.21875 7.761719 -20.980469 C 7.855469 -20.835938 7.855469 -20.453125 7.855469 -20.308594 C 7.855469 -20.117188 7.425781 -19.449219 7.28125 -19.160156 C 5.84375 -16.667969 5.652344 -15.902344 4.933594 -14.945312 Z M 3.6875 -13.363281 "/></g></g></g><g fill="#ffffff" fill-opacity="1"><g transform="translate(69.588355, 51.932234)"><g><path d="M 6.800781 -16 C 8.382812 -13.460938 9.054688 -11.6875 9.195312 -11.304688 C 9.675781 -10.105469 9.675781 -9.773438 9.773438 -8.765625 C 9.820312 -8.046875 9.820312 -8.09375 9.820312 -6.800781 C 9.820312 -5.316406 9.867188 -4.359375 9.773438 -3.785156 C 9.722656 -3.304688 9.484375 -2.683594 9.484375 -1.914062 C 9.484375 -1.007812 9.675781 -0.765625 9.914062 -0.527344 C 10.105469 -0.335938 10.683594 0.144531 11.6875 0.144531 C 12.742188 0.144531 12.214844 0.046875 13.554688 0.046875 C 14.273438 0.046875 15.039062 0.0976562 15.757812 0.0976562 C 16.957031 0.0976562 17.578125 -0.144531 18.824219 0 C 19.398438 0.046875 19.878906 0.191406 20.40625 0.191406 C 21.460938 0.191406 21.792969 -0.0976562 22.035156 -0.382812 C 22.464844 -0.910156 22.464844 -1.390625 22.464844 -2.300781 C 22.464844 -3.113281 22.179688 -2.777344 22.179688 -4.839844 C 22.179688 -6.226562 22.273438 -9.339844 22.417969 -10.441406 C 22.5625 -11.351562 22.703125 -11.640625 22.992188 -12.214844 C 24.859375 -15.855469 22.945312 -13.027344 28.546875 -21.125 C 29.984375 -23.183594 29.554688 -22.417969 30.082031 -23.519531 C 31.710938 -26.921875 31.46875 -25.722656 32.238281 -27.0625 C 32.570312 -27.636719 32.429688 -27.734375 33.050781 -28.738281 C 33.242188 -29.027344 33.433594 -29.316406 33.53125 -29.601562 C 33.578125 -29.792969 33.675781 -30.226562 33.675781 -30.511719 C 33.675781 -30.894531 33.578125 -31.230469 33.386719 -31.46875 C 32.859375 -32.140625 31.902344 -32.140625 31.328125 -32.140625 C 30.703125 -32.140625 30.128906 -32.046875 29.554688 -31.996094 C 28.835938 -31.949219 28.164062 -31.996094 27.445312 -31.996094 C 25.675781 -31.949219 25.769531 -31.855469 24.8125 -31.949219 C 24.476562 -31.996094 24.191406 -32.046875 23.902344 -32.046875 C 23.230469 -32.046875 22.65625 -31.804688 22.128906 -31.566406 C 21.652344 -31.328125 21.507812 -31.136719 21.316406 -30.894531 C 21.027344 -30.511719 20.835938 -30.082031 20.40625 -29.316406 C 19.542969 -27.734375 18.871094 -27.113281 18.152344 -25.914062 C 16.910156 -23.949219 16.382812 -23.28125 15.949219 -23.28125 C 15.855469 -23.28125 15.566406 -23.375 15.472656 -23.421875 C 15.039062 -23.664062 14.707031 -24.476562 13.652344 -26.535156 C 12.742188 -28.355469 12.453125 -28.835938 12.359375 -28.980469 C 12.167969 -29.265625 12.214844 -29.316406 12.167969 -29.457031 C 11.785156 -31.136719 11.257812 -31.46875 11.160156 -31.566406 C 11.015625 -31.664062 10.394531 -32.09375 10.15625 -32.09375 C 9.628906 -32.09375 9.003906 -31.949219 7.617188 -31.949219 C 7.328125 -31.949219 7.089844 -31.949219 6.800781 -31.949219 C 6.273438 -31.949219 5.699219 -31.949219 5.171875 -31.996094 C 4.980469 -31.996094 4.839844 -32.046875 4.644531 -32.046875 C 4.261719 -32.046875 3.878906 -31.949219 3.496094 -31.949219 C 2.96875 -31.949219 2.492188 -32.09375 1.964844 -32.140625 C 1.773438 -32.140625 1.53125 -32.140625 1.339844 -32.140625 C 0.910156 -32.140625 0 -32.1875 -0.574219 -31.664062 C -0.8125 -31.421875 -1.007812 -30.847656 -1.007812 -30.417969 C -1.007812 -29.507812 -0.382812 -28.644531 -0.0976562 -28.214844 C 1.773438 -25.433594 0.0976562 -26.921875 3.542969 -21.316406 Z M 6.800781 -16 "/></g></g></g><g fill="#ffffff" fill-opacity="1"><g transform="translate(102.159514, 51.932234)"><g><path d="M 21.984375 -28.164062 C 21.984375 -28.882812 22.082031 -29.363281 22.082031 -29.890625 C 22.082031 -31.277344 20.359375 -31.855469 19.925781 -31.996094 C 18.777344 -32.429688 18.585938 -32.476562 17.675781 -32.476562 C 17.242188 -32.476562 16.71875 -32.523438 16.285156 -32.523438 C 15.617188 -32.523438 14.992188 -32.714844 14.320312 -32.714844 C 8.527344 -32.714844 6.226562 -31.664062 4.980469 -30.847656 C 3.734375 -30.082031 2.25 -28.546875 1.675781 -27.304688 C 1.4375 -26.777344 1.199219 -26.203125 0.910156 -25.386719 C 0.71875 -24.90625 0.429688 -24.285156 0.429688 -23.136719 C 0.429688 -22.417969 0.527344 -21.269531 0.621094 -20.742188 C 0.863281 -19.398438 1.53125 -17.960938 1.722656 -17.578125 C 1.914062 -17.195312 2.25 -16.910156 2.730469 -16.335938 C 3.542969 -15.375 3.785156 -14.898438 4.980469 -14.128906 C 6.226562 -13.363281 6.945312 -12.835938 7.617188 -12.453125 C 8.335938 -12.070312 10.203125 -11.160156 10.921875 -10.921875 L 12.167969 -10.488281 C 12.597656 -10.347656 12.742188 -9.964844 12.742188 -9.820312 C 12.742188 -9.484375 12.550781 -8.863281 11.449219 -8.863281 C 11.207031 -8.863281 10.921875 -8.910156 10.632812 -8.957031 C 9.003906 -9.195312 9.53125 -9.148438 9.003906 -9.246094 C 8.382812 -9.386719 8.476562 -9.292969 7.234375 -9.628906 C 6.5625 -9.773438 6.464844 -9.773438 5.941406 -9.820312 C 4.886719 -9.964844 4.023438 -10.394531 3.160156 -10.394531 C 2.109375 -10.394531 0.863281 -9.386719 1.148438 -7.183594 L 1.246094 -6.417969 L 1.246094 -5.605469 C 1.246094 -2.109375 0.863281 -1.582031 2.011719 -0.671875 C 2.441406 -0.335938 2.730469 -0.238281 4.121094 -0.0976562 C 5.125 0 6.132812 0.144531 7.042969 0.238281 C 10.875 0.71875 10.96875 0.429688 12.886719 0.480469 C 13.363281 0.480469 13.796875 0.527344 14.273438 0.527344 C 15.375 0.527344 17.914062 0.335938 19.207031 -0.335938 C 20.550781 -1.054688 21.507812 -1.820312 22.273438 -2.441406 C 22.800781 -2.875 23.136719 -3.160156 23.664062 -3.785156 C 24.09375 -4.3125 24.714844 -5.269531 24.859375 -5.890625 C 25.003906 -6.707031 25.050781 -7.855469 25.101562 -8.382812 C 25.148438 -9.101562 25.292969 -9.484375 25.292969 -9.914062 C 25.292969 -10.25 25.050781 -11.351562 24.957031 -11.6875 C 24.8125 -12.359375 24.476562 -12.886719 24.191406 -13.605469 C 23.902344 -14.273438 23.804688 -14.800781 23.136719 -15.617188 C 22.511719 -16.382812 21.460938 -17.242188 20.980469 -17.628906 C 20.070312 -18.296875 19.304688 -18.679688 18.25 -19.257812 C 16.476562 -20.261719 16.8125 -20.167969 16.382812 -20.308594 C 15.617188 -20.550781 14.800781 -20.691406 14.035156 -21.027344 C 13.9375 -21.074219 13.796875 -21.125 13.699219 -21.171875 C 13.363281 -21.269531 13.460938 -21.125 12.933594 -21.746094 C 12.835938 -21.84375 12.742188 -21.984375 12.742188 -22.179688 C 12.742188 -22.5625 13.027344 -22.609375 13.316406 -22.753906 C 13.554688 -22.847656 13.746094 -22.945312 14.320312 -22.945312 C 14.5625 -22.945312 14.753906 -22.847656 14.945312 -22.800781 C 15.230469 -22.703125 15.519531 -22.65625 15.808594 -22.609375 C 16 -22.5625 16.191406 -22.5625 16.382812 -22.5625 C 16.621094 -22.5625 16.859375 -22.5625 17.101562 -22.511719 C 17.769531 -22.417969 18.96875 -21.984375 19.589844 -21.984375 C 20.023438 -21.984375 20.597656 -22.179688 21.171875 -22.65625 C 22.371094 -23.710938 21.890625 -24.859375 21.9375 -26.679688 Z M 16.667969 -35.589844 C 17.195312 -35.734375 17.675781 -35.925781 18.203125 -36.117188 C 18.777344 -36.308594 19.351562 -36.453125 19.925781 -36.644531 C 20.980469 -36.980469 21.460938 -37.171875 21.460938 -37.984375 C 21.460938 -38.511719 21.125 -39.039062 20.308594 -39.085938 C 20.167969 -39.085938 19.972656 -39.085938 19.832031 -39.085938 C 19.304688 -39.085938 18.777344 -39.039062 18.25 -39.039062 C 17.578125 -39.039062 16.910156 -39.039062 16.238281 -39.039062 L 14.898438 -38.992188 C 14.226562 -38.941406 12.070312 -38.992188 11.066406 -39.039062 C 10.96875 -39.039062 10.875 -39.039062 10.777344 -39.039062 C 9.722656 -38.992188 9.148438 -37.9375 8.429688 -36.691406 C 7.519531 -35.109375 7.425781 -34.824219 7.425781 -34.632812 C 7.425781 -34.199219 7.710938 -34.058594 8.191406 -34.058594 C 8.621094 -34.058594 9.003906 -34.105469 9.4375 -34.105469 C 9.820312 -34.105469 10.203125 -34.058594 10.585938 -34.058594 C 10.824219 -34.058594 11.113281 -34.105469 11.351562 -34.105469 C 12.070312 -34.105469 11.785156 -34.105469 12.167969 -34.199219 C 12.40625 -34.25 12.597656 -34.25 13.078125 -34.441406 C 13.507812 -34.585938 13.988281 -34.824219 14.65625 -35.015625 Z M 16.667969 -35.589844 "/></g></g></g><g fill="#ffffff" fill-opacity="1"><g transform="translate(127.881147, 51.932234)"><g><path d="M 23.613281 -6.945312 C 23.613281 -7.617188 23.710938 -8.671875 23.710938 -9.246094 C 23.710938 -9.867188 23.664062 -10.777344 23.230469 -11.351562 C 22.703125 -12.070312 21.652344 -12.167969 21.460938 -12.167969 C 21.316406 -12.167969 21.21875 -12.167969 21.074219 -12.167969 C 20.644531 -12.117188 18.539062 -11.832031 17.960938 -11.734375 C 17.101562 -11.734375 15.808594 -11.878906 15.039062 -12.261719 C 13.125 -13.171875 12.835938 -15.28125 12.835938 -16.285156 C 12.835938 -17.4375 13.554688 -18.488281 14.226562 -19.015625 C 14.609375 -19.304688 15.183594 -19.6875 16.09375 -19.78125 C 16.957031 -19.878906 17.292969 -19.734375 18.441406 -19.832031 L 19.925781 -19.925781 C 20.644531 -19.972656 20.597656 -19.78125 21.699219 -19.78125 C 22.226562 -19.78125 22.65625 -19.878906 23.039062 -20.308594 C 24 -21.363281 23.328125 -23.089844 23.328125 -25.433594 L 23.328125 -26.632812 C 23.328125 -27.636719 23.472656 -27.78125 23.519531 -29.21875 C 23.519531 -29.457031 23.519531 -29.648438 23.519531 -29.890625 C 23.519531 -30.464844 23.421875 -30.703125 23.375 -30.847656 C 22.703125 -32.378906 18.679688 -32.09375 17.101562 -32.09375 C 12.644531 -32.09375 10.011719 -31.375 8.863281 -30.800781 C 7.761719 -30.273438 5.605469 -28.789062 4.261719 -27.351562 C 3.542969 -26.535156 2.730469 -25.53125 1.339844 -21.84375 C 1.148438 -21.269531 0.527344 -19.832031 0.527344 -17.339844 C 0.527344 -15.472656 1.101562 -11.015625 1.675781 -9.246094 C 2.25 -7.566406 2.96875 -6.851562 4.550781 -4.742188 C 6.035156 -2.730469 6.5625 -2.394531 7.855469 -1.675781 C 9.101562 -1.007812 11.59375 0.191406 17.386719 0.289062 C 17.578125 0.289062 17.722656 0.289062 17.914062 0.289062 C 21.269531 0.238281 22.226562 -0.0976562 23.089844 -0.910156 C 23.804688 -1.628906 23.855469 -2.15625 23.855469 -2.441406 C 23.855469 -2.539062 23.804688 -2.632812 23.804688 -2.730469 C 23.804688 -2.921875 23.804688 -3.066406 23.804688 -3.257812 C 23.855469 -4.023438 23.613281 -4.839844 23.613281 -5.605469 Z M 23.613281 -6.945312 "/></g></g></g><g fill="#ffffff" fill-opacity="1"><g transform="translate(152.54901, 51.932234)"><g><path d="M 2.011719 -26.105469 C 2.011719 -25.625 2.058594 -25.339844 2.058594 -24.574219 C 2.058594 -24 2.011719 -23.472656 2.011719 -22.894531 C 2.011719 -22.417969 2.011719 -21.984375 2.011719 -21.507812 L 2.011719 -16.476562 C 2.011719 -13.746094 2.300781 -13.699219 2.15625 -11.59375 C 2.109375 -10.730469 2.011719 -9.773438 2.011719 -8.863281 L 2.011719 -7.042969 C 2.011719 -5.699219 2.109375 -5.414062 2.058594 -4.3125 C 2.011719 -3.496094 1.914062 -2.875 1.914062 -2.15625 C 1.914062 -1.292969 2.011719 -0.863281 2.347656 -0.527344 C 2.875 0 3.929688 0.191406 4.597656 0.144531 L 7.855469 0 L 10.15625 0 C 10.347656 0 10.585938 0.046875 10.777344 0.046875 C 11.015625 0.046875 11.304688 0.046875 11.542969 0.046875 C 11.832031 0.046875 12.167969 0.0976562 12.453125 0.0976562 C 12.886719 0.0976562 13.605469 0.0976562 14.226562 -0.429688 C 14.753906 -0.863281 14.847656 -1.628906 14.898438 -2.011719 C 14.898438 -2.15625 14.898438 -2.300781 14.898438 -2.441406 C 14.847656 -3.066406 14.847656 -2.441406 14.707031 -3.640625 C 14.609375 -4.503906 14.515625 -5.03125 14.515625 -5.554688 C 14.515625 -6.273438 14.609375 -6.992188 14.65625 -7.710938 C 14.65625 -8.046875 14.65625 -8.382812 14.65625 -8.71875 C 14.65625 -8.8125 14.65625 -8.910156 14.65625 -9.003906 C 14.65625 -10.96875 14.515625 -10.441406 14.515625 -11.925781 L 14.515625 -16.046875 C 14.515625 -16.667969 14.5625 -17.195312 14.609375 -17.53125 C 14.65625 -17.914062 14.753906 -19.496094 14.753906 -20.023438 C 14.753906 -21.746094 14.464844 -23.566406 14.515625 -24.765625 L 14.609375 -26.394531 C 14.609375 -26.726562 14.707031 -27.160156 14.707031 -27.925781 C 14.707031 -28.164062 14.707031 -28.453125 14.707031 -28.691406 C 14.707031 -29.601562 14.707031 -30.753906 13.746094 -31.519531 C 12.789062 -32.238281 11.160156 -32.1875 10.011719 -32.09375 L 9.101562 -31.996094 C 8.8125 -31.949219 7.761719 -31.855469 7.089844 -31.855469 C 5.746094 -31.855469 5.171875 -32.09375 4.167969 -32.09375 C 3.257812 -32.09375 2.875 -31.902344 2.539062 -31.566406 C 2.058594 -31.085938 1.820312 -30.558594 1.867188 -29.699219 Z M 2.011719 -26.105469 "/></g></g></g><g fill="#ffffff" fill-opacity="1"><g transform="translate(169.313582, 51.932234)"><g><path d="M 2.058594 -27.925781 C 2.15625 -25.722656 2.300781 -26.921875 2.347656 -24.332031 C 2.347656 -24.046875 2.347656 -23.710938 2.347656 -23.421875 C 2.347656 -23.089844 2.300781 -22.703125 2.300781 -22.371094 C 2.300781 -22.035156 2.300781 -21.746094 2.300781 -21.410156 C 2.300781 -21.074219 2.300781 -20.742188 2.300781 -20.40625 C 2.300781 -19.6875 2.300781 -19.015625 2.300781 -18.296875 C 2.25 -16.382812 2.109375 -16.09375 2.109375 -13.890625 C 2.109375 -12.886719 2.15625 -12.214844 2.15625 -11.6875 C 2.203125 -11.015625 2.300781 -10.203125 2.300781 -9.484375 C 2.300781 -8.765625 2.203125 -8.09375 2.109375 -6.898438 L 2.011719 -5.652344 C 1.964844 -4.789062 1.722656 -3.640625 1.722656 -2.730469 C 1.722656 -2.058594 1.820312 -1.339844 2.25 -0.8125 C 2.777344 -0.144531 3.402344 0 4.167969 0 C 5.03125 0 5.222656 -0.046875 6.035156 -0.046875 L 7.328125 -0.046875 C 7.710938 -0.046875 8.046875 0 8.429688 0 C 8.621094 0 8.765625 0 8.957031 0 C 9.101562 0 9.246094 0 9.386719 0 C 9.675781 0 9.964844 -0.046875 10.25 -0.046875 L 13.027344 0 C 14.128906 0 14.5625 -0.621094 14.5625 -1.246094 L 14.464844 -3.878906 C 14.417969 -4.839844 14.65625 -4.023438 14.65625 -5.316406 C 14.65625 -6.417969 14.609375 -6.515625 14.609375 -7.28125 L 14.609375 -9.773438 C 14.609375 -10.058594 14.5625 -10.203125 14.515625 -10.394531 C 14.464844 -10.585938 14.417969 -11.015625 14.417969 -11.160156 C 14.417969 -11.925781 14.898438 -11.976562 15.136719 -11.976562 C 15.710938 -11.976562 15.949219 -11.640625 16.238281 -11.351562 C 17.148438 -10.296875 17.386719 -10.058594 17.628906 -9.914062 L 18.394531 -9.4375 C 18.679688 -9.246094 19.207031 -8.863281 19.734375 -8.863281 C 20.070312 -8.863281 20.359375 -9.101562 21.699219 -10.347656 L 22.273438 -10.875 C 22.800781 -11.351562 22.703125 -11.351562 23.375 -11.925781 C 23.855469 -12.308594 24.140625 -12.503906 24.332031 -12.503906 C 24.523438 -12.503906 25.050781 -12.453125 25.003906 -11.304688 L 24.957031 -10.105469 C 24.90625 -9.339844 25.003906 -8.574219 24.957031 -7.808594 C 24.957031 -7.472656 24.90625 -7.089844 24.90625 -6.753906 C 24.90625 -6.707031 24.90625 -6.609375 24.90625 -6.5625 C 24.90625 -6.417969 24.859375 -6.273438 24.859375 -6.132812 C 24.859375 -5.941406 24.859375 -5.796875 24.859375 -5.605469 C 24.90625 -5.222656 25.003906 -4.550781 25.003906 -3.976562 L 24.957031 -1.582031 C 24.957031 -1.246094 25.003906 -0.765625 25.484375 -0.335938 C 25.867188 0 26.441406 0.238281 27.542969 0.191406 L 30.847656 0 C 31.613281 -0.046875 32.140625 0.046875 33.578125 0.0976562 C 33.867188 0.0976562 34.152344 0.144531 34.441406 0.144531 C 34.632812 0.144531 34.777344 0.144531 34.96875 0.144531 C 35.445312 0.144531 36.210938 0.0976562 36.789062 -0.335938 C 37.410156 -0.8125 37.554688 -2.011719 37.507812 -2.875 L 37.363281 -5.746094 C 37.3125 -6.515625 37.363281 -7.328125 37.363281 -8.09375 C 37.363281 -8.476562 37.363281 -8.8125 37.3125 -9.195312 C 37.265625 -10.296875 37.21875 -10.730469 37.171875 -13.171875 C 37.121094 -14.320312 37.121094 -15.425781 37.171875 -16.574219 C 37.21875 -18.058594 37.410156 -19.589844 37.363281 -21.074219 L 37.3125 -23.519531 C 37.3125 -23.664062 37.3125 -23.757812 37.3125 -23.902344 C 37.3125 -24.285156 37.265625 -24.621094 37.265625 -25.003906 C 37.265625 -25.148438 37.265625 -25.433594 37.265625 -25.484375 L 37.3125 -27.113281 L 37.410156 -28.355469 C 37.457031 -28.789062 37.507812 -29.074219 37.554688 -29.792969 C 37.554688 -29.890625 37.554688 -29.9375 37.554688 -30.035156 C 37.554688 -30.367188 37.363281 -30.945312 37.171875 -31.230469 C 36.789062 -31.710938 35.828125 -32.140625 34.535156 -32.09375 L 31.277344 -31.996094 C 31.136719 -31.996094 31.039062 -31.996094 30.894531 -31.996094 C 30.558594 -31.996094 30.175781 -31.949219 29.84375 -31.949219 C 29.554688 -31.949219 29.265625 -31.949219 28.980469 -31.949219 C 27.78125 -31.996094 28.40625 -31.996094 27.445312 -32.046875 C 27.351562 -32.046875 27.253906 -32.046875 27.160156 -32.046875 C 26.632812 -32.046875 25.914062 -31.949219 24.90625 -30.703125 C 24.140625 -29.746094 23.230469 -28.214844 23.039062 -27.925781 C 21.984375 -26.203125 20.933594 -24.714844 20.167969 -24.714844 C 19.972656 -24.714844 19.6875 -24.859375 19.496094 -25.003906 C 19.257812 -25.148438 18.777344 -25.675781 18.632812 -25.816406 C 18.394531 -26.105469 18.488281 -26.105469 17.578125 -27.015625 C 16.527344 -28.117188 16 -28.691406 15.519531 -29.507812 C 15.089844 -30.226562 14.800781 -30.847656 14.273438 -31.375 C 13.796875 -31.855469 13.269531 -32.09375 12.070312 -32.09375 C 11.449219 -32.09375 10.921875 -32.046875 10.203125 -31.996094 C 8.910156 -31.902344 8.476562 -32.046875 7.28125 -32.09375 L 4.789062 -32.238281 C 4.121094 -32.285156 3.304688 -32.140625 2.875 -31.757812 C 2.300781 -31.277344 1.964844 -30.128906 2.011719 -28.980469 Z M 2.058594 -27.925781 "/></g></g></g><g fill="#ffffff" fill-opacity="1"><g transform="translate(208.590551, 51.932234)"><g><path d="M 6.800781 -16 C 8.382812 -13.460938 9.054688 -11.6875 9.195312 -11.304688 C 9.675781 -10.105469 9.675781 -9.773438 9.773438 -8.765625 C 9.820312 -8.046875 9.820312 -8.09375 9.820312 -6.800781 C 9.820312 -5.316406 9.867188 -4.359375 9.773438 -3.785156 C 9.722656 -3.304688 9.484375 -2.683594 9.484375 -1.914062 C 9.484375 -1.007812 9.675781 -0.765625 9.914062 -0.527344 C 10.105469 -0.335938 10.683594 0.144531 11.6875 0.144531 C 12.742188 0.144531 12.214844 0.046875 13.554688 0.046875 C 14.273438 0.046875 15.039062 0.0976562 15.757812 0.0976562 C 16.957031 0.0976562 17.578125 -0.144531 18.824219 0 C 19.398438 0.046875 19.878906 0.191406 20.40625 0.191406 C 21.460938 0.191406 21.792969 -0.0976562 22.035156 -0.382812 C 22.464844 -0.910156 22.464844 -1.390625 22.464844 -2.300781 C 22.464844 -3.113281 22.179688 -2.777344 22.179688 -4.839844 C 22.179688 -6.226562 22.273438 -9.339844 22.417969 -10.441406 C 22.5625 -11.351562 22.703125 -11.640625 22.992188 -12.214844 C 24.859375 -15.855469 22.945312 -13.027344 28.546875 -21.125 C 29.984375 -23.183594 29.554688 -22.417969 30.082031 -23.519531 C 31.710938 -26.921875 31.46875 -25.722656 32.238281 -27.0625 C 32.570312 -27.636719 32.429688 -27.734375 33.050781 -28.738281 C 33.242188 -29.027344 33.433594 -29.316406 33.53125 -29.601562 C 33.578125 -29.792969 33.675781 -30.226562 33.675781 -30.511719 C 33.675781 -30.894531 33.578125 -31.230469 33.386719 -31.46875 C 32.859375 -32.140625 31.902344 -32.140625 31.328125 -32.140625 C 30.703125 -32.140625 30.128906 -32.046875 29.554688 -31.996094 C 28.835938 -31.949219 28.164062 -31.996094 27.445312 -31.996094 C 25.675781 -31.949219 25.769531 -31.855469 24.8125 -31.949219 C 24.476562 -31.996094 24.191406 -32.046875 23.902344 -32.046875 C 23.230469 -32.046875 22.65625 -31.804688 22.128906 -31.566406 C 21.652344 -31.328125 21.507812 -31.136719 21.316406 -30.894531 C 21.027344 -30.511719 20.835938 -30.082031 20.40625 -29.316406 C 19.542969 -27.734375 18.871094 -27.113281 18.152344 -25.914062 C 16.910156 -23.949219 16.382812 -23.28125 15.949219 -23.28125 C 15.855469 -23.28125 15.566406 -23.375 15.472656 -23.421875 C 15.039062 -23.664062 14.707031 -24.476562 13.652344 -26.535156 C 12.742188 -28.355469 12.453125 -28.835938 12.359375 -28.980469 C 12.167969 -29.265625 12.214844 -29.316406 12.167969 -29.457031 C 11.785156 -31.136719 11.257812 -31.46875 11.160156 -31.566406 C 11.015625 -31.664062 10.394531 -32.09375 10.15625 -32.09375 C 9.628906 -32.09375 9.003906 -31.949219 7.617188 -31.949219 C 7.328125 -31.949219 7.089844 -31.949219 6.800781 -31.949219 C 6.273438 -31.949219 5.699219 -31.949219 5.171875 -31.996094 C 4.980469 -31.996094 4.839844 -32.046875 4.644531 -32.046875 C 4.261719 -32.046875 3.878906 -31.949219 3.496094 -31.949219 C 2.96875 -31.949219 2.492188 -32.09375 1.964844 -32.140625 C 1.773438 -32.140625 1.53125 -32.140625 1.339844 -32.140625 C 0.910156 -32.140625 0 -32.1875 -0.574219 -31.664062 C -0.8125 -31.421875 -1.007812 -30.847656 -1.007812 -30.417969 C -1.007812 -29.507812 -0.382812 -28.644531 -0.0976562 -28.214844 C 1.773438 -25.433594 0.0976562 -26.921875 3.542969 -21.316406 Z M 6.800781 -16 "/></g></g></g><g fill="#ffffff" fill-opacity="1"><g transform="translate(241.161716, 51.932234)"><g/></g></g><g fill="#ffffff" fill-opacity="1"><g transform="translate(252.322123, 51.932234)"><g><path d="M 3.351562 -17.386719 C 3.449219 -17.195312 3.6875 -16.382812 4.023438 -14.945312 C 4.503906 -12.980469 4.789062 -11.832031 4.933594 -11.496094 C 5.988281 -8.527344 6.5625 -6.898438 6.609375 -6.65625 C 6.707031 -6.324219 6.898438 -5.269531 7.234375 -3.542969 C 7.664062 -2.25 7.953125 -1.484375 8.046875 -1.246094 C 8.574219 -0.335938 9.578125 0.0976562 11.066406 0.0976562 C 11.351562 0.0976562 11.59375 0.0976562 11.832031 0.046875 C 13.699219 -0.0976562 14.753906 -0.144531 15.039062 -0.144531 C 15.328125 -0.144531 15.617188 -0.144531 15.902344 -0.0976562 C 17.484375 0 18.441406 0.046875 18.777344 0.046875 C 19.734375 0.046875 20.359375 -0.0976562 20.597656 -0.335938 C 20.835938 -0.574219 21.9375 -2.539062 21.984375 -2.824219 C 22.417969 -4.261719 22.703125 -5.171875 22.847656 -5.605469 C 22.894531 -5.699219 23.039062 -5.988281 23.183594 -6.515625 C 23.328125 -6.898438 23.472656 -7.089844 23.710938 -7.089844 C 23.757812 -7.089844 23.855469 -7.042969 23.902344 -6.992188 C 24.238281 -6.65625 24.429688 -6.179688 24.523438 -5.554688 C 24.667969 -4.644531 24.8125 -4.023438 24.957031 -3.734375 L 25.484375 -2.25 C 25.914062 -1.148438 26.203125 -0.527344 26.34375 -0.382812 C 26.679688 -0.046875 27.207031 0.0976562 27.925781 0.0976562 C 28.117188 0.0976562 28.835938 0.046875 30.082031 0 L 31.277344 0 C 31.804688 0.046875 32.238281 0.046875 32.476562 0.046875 C 32.667969 0.046875 32.859375 0.046875 33.097656 0 L 34.871094 0 C 35.972656 0.046875 36.644531 0.046875 36.882812 0.046875 C 37.507812 0.046875 37.984375 0 38.320312 -0.0976562 C 38.703125 -0.238281 39.085938 -0.621094 39.421875 -1.199219 C 39.566406 -1.4375 40.1875 -2.875 41.195312 -5.605469 C 41.769531 -7.042969 42.105469 -7.902344 42.199219 -8.144531 C 42.34375 -8.527344 42.679688 -9.675781 43.207031 -11.59375 C 43.925781 -13.460938 44.308594 -14.464844 44.355469 -14.609375 C 44.402344 -14.847656 44.59375 -15.664062 44.835938 -17.050781 L 45.121094 -18.058594 C 45.363281 -18.96875 45.746094 -19.972656 46.175781 -21.171875 C 46.511719 -21.984375 46.703125 -22.5625 46.75 -22.894531 L 47.183594 -25.195312 C 47.230469 -25.242188 47.324219 -25.53125 47.515625 -26.058594 C 48.234375 -27.925781 48.617188 -29.21875 48.617188 -29.9375 C 48.617188 -30.558594 48.476562 -31.085938 48.140625 -31.421875 C 47.804688 -31.855469 47.324219 -32.046875 46.796875 -32.046875 L 42.917969 -31.996094 C 42.34375 -32.046875 42.007812 -32.09375 41.914062 -32.09375 C 39.039062 -32.09375 37.363281 -31.949219 36.929688 -31.710938 C 36.402344 -31.46875 36.164062 -30.703125 36.117188 -29.507812 C 36.070312 -28.789062 36.070312 -28.40625 36.019531 -28.308594 C 35.496094 -26.726562 35.207031 -25.816406 35.160156 -25.578125 C 34.96875 -24.765625 34.777344 -23.855469 34.535156 -22.847656 C 34.441406 -22.128906 34.34375 -21.652344 34.296875 -21.460938 C 33.867188 -20.167969 33.578125 -19.304688 33.53125 -18.96875 C 33.195312 -17.484375 33.003906 -16.621094 32.859375 -16.476562 C 32.765625 -16.335938 32.621094 -16.238281 32.378906 -16.238281 C 31.757812 -16.238281 31.328125 -17.148438 31.039062 -18.921875 C 30.992188 -19.351562 30.753906 -20.261719 30.417969 -21.652344 C 30.128906 -23.230469 29.9375 -24.191406 29.84375 -24.523438 C 29.363281 -25.722656 29.074219 -26.488281 29.027344 -26.726562 C 28.597656 -29.457031 28.355469 -30.847656 28.308594 -30.992188 C 28.070312 -31.421875 27.734375 -31.757812 27.207031 -31.902344 C 26.871094 -31.949219 26.058594 -31.996094 24.714844 -31.996094 C 24 -31.996094 23.136719 -31.996094 22.128906 -31.949219 L 20.40625 -32.046875 L 20.070312 -31.996094 L 19.015625 -32.046875 C 17.578125 -31.996094 16.71875 -31.949219 16.476562 -31.855469 C 16.140625 -31.710938 15.949219 -31.375 15.949219 -30.847656 C 15.949219 -30.609375 16.140625 -29.9375 16.574219 -28.738281 L 17.101562 -26.726562 C 17.4375 -26.011719 17.628906 -25.578125 17.675781 -25.386719 C 17.769531 -25.148438 17.960938 -24.429688 18.203125 -23.28125 C 18.632812 -21.890625 18.824219 -21.027344 18.824219 -20.691406 C 18.824219 -19.640625 18.347656 -18.105469 17.386719 -16.046875 C 17.148438 -15.617188 16.957031 -15.425781 16.71875 -15.425781 C 16.476562 -15.425781 16.335938 -15.519531 16.191406 -15.664062 C 15.710938 -16.238281 15.757812 -16.335938 14.992188 -19.398438 L 13.84375 -22.753906 C 13.605469 -23.902344 13.507812 -24.523438 13.507812 -24.667969 L 12.359375 -28.117188 C 12.214844 -29.21875 12.070312 -29.890625 11.976562 -30.175781 C 11.734375 -30.992188 11.351562 -31.566406 10.875 -31.804688 C 10.632812 -31.902344 9.867188 -31.996094 8.476562 -32.046875 L 5.699219 -31.996094 C 3.929688 -31.996094 2.632812 -31.996094 1.722656 -31.949219 C 1.484375 -31.902344 1.339844 -31.902344 1.199219 -31.902344 L 0.910156 -31.902344 C 0.765625 -31.949219 0.671875 -31.949219 0.621094 -31.949219 C 0.238281 -31.949219 -0.046875 -31.855469 -0.191406 -31.613281 C -0.527344 -31.277344 -0.71875 -30.847656 -0.71875 -30.320312 C -0.71875 -29.792969 -0.574219 -29.21875 -0.289062 -28.5 C 0.238281 -27.207031 0.527344 -26.441406 0.671875 -26.105469 C 0.8125 -25.675781 1.390625 -23.664062 2.347656 -20.070312 Z M 3.351562 -17.386719 "/></g></g></g><g fill="#ffffff" fill-opacity="1"><g transform="translate(300.220879, 51.932234)"><g><path d="M 1.914062 -26.203125 C 1.914062 -26.011719 1.914062 -25.003906 1.914062 -24.8125 C 1.867188 -23.28125 1.722656 -23.902344 1.722656 -21.9375 C 1.722656 -19.972656 1.867188 -19.304688 1.914062 -17.960938 C 2.011719 -16.285156 1.773438 -17.578125 2.058594 -14.082031 C 2.15625 -13.21875 2.15625 -11.976562 2.15625 -11.257812 C 2.15625 -10.539062 2.011719 -9.820312 2.011719 -8.957031 L 1.867188 -3.6875 C 1.867188 -3.304688 1.867188 -2.921875 1.820312 -2.539062 C 1.820312 -2.300781 1.773438 -2.109375 1.773438 -1.867188 C 1.773438 -0.957031 1.964844 -0.621094 2.300781 -0.335938 C 2.730469 0.046875 3.113281 0.191406 3.878906 0.191406 C 3.976562 0.191406 4.023438 0.191406 4.121094 0.191406 C 6.753906 0.144531 6.324219 0 7.902344 0 L 11.878906 0.046875 C 12.550781 0.046875 14.179688 0.046875 14.992188 0 C 15.425781 0 15.902344 -0.046875 16.335938 0 C 16.957031 0.046875 17.675781 0.191406 18.441406 0.191406 C 18.679688 0.191406 18.921875 0.144531 19.160156 0.144531 C 19.496094 0.144531 19.832031 0.144531 20.214844 0.0976562 C 21.792969 0.046875 20.40625 -0.0976562 21.792969 -0.0976562 L 22.511719 -0.0976562 C 23.089844 -0.0976562 22.65625 0 23.902344 0.046875 C 24.285156 0.046875 24.621094 0.0976562 25.003906 0.046875 C 26.535156 -0.046875 27.160156 -0.71875 26.921875 -4.839844 L 26.871094 -5.746094 C 26.824219 -6.898438 26.921875 -5.796875 26.921875 -7.234375 C 26.921875 -7.710938 26.824219 -8.910156 26.011719 -9.628906 C 25.578125 -10.011719 25.101562 -10.058594 24.621094 -10.058594 C 24.476562 -10.058594 24.285156 -10.058594 24.140625 -10.058594 C 23.902344 -10.058594 23.613281 -10.011719 23.375 -10.011719 C 23.089844 -10.011719 22.800781 -10.011719 22.511719 -10.011719 L 21.363281 -10.011719 C 20.453125 -10.011719 19.398438 -9.964844 18.632812 -9.914062 C 18.105469 -9.867188 17.386719 -9.773438 16.527344 -9.773438 C 16 -9.773438 15.375 -9.820312 14.898438 -10.203125 C 14.515625 -10.488281 14.417969 -10.875 14.417969 -11.113281 C 14.417969 -11.304688 14.5625 -11.59375 14.707031 -11.785156 C 14.847656 -11.925781 15.183594 -12.214844 15.710938 -12.214844 C 15.855469 -12.214844 16.046875 -12.167969 16.191406 -12.167969 C 16.527344 -12.117188 16.8125 -12.167969 17.148438 -12.167969 L 19.351562 -12.117188 C 21.363281 -12.070312 21.21875 -12.261719 23.28125 -12.308594 C 23.613281 -12.308594 23.902344 -12.308594 24.238281 -12.308594 C 24.765625 -12.308594 25.003906 -12.40625 25.292969 -12.695312 C 25.625 -12.980469 25.769531 -13.269531 25.769531 -14.035156 C 25.769531 -14.417969 25.722656 -14.707031 25.675781 -14.992188 C 25.578125 -15.519531 25.625 -15.664062 25.625 -15.949219 L 25.53125 -18.585938 C 25.53125 -18.824219 25.484375 -19.304688 25.148438 -19.878906 C 24.765625 -20.5 24.046875 -20.550781 23.421875 -20.550781 C 22.703125 -20.550781 21.9375 -20.40625 21.21875 -20.40625 C 20.40625 -20.40625 19.542969 -20.453125 18.730469 -20.40625 C 18.011719 -20.359375 17.914062 -20.308594 17.4375 -20.261719 C 17.148438 -20.261719 16.910156 -20.261719 16.621094 -20.261719 C 15.808594 -20.261719 14.898438 -20.214844 14.371094 -20.597656 C 14.035156 -20.835938 13.988281 -21.171875 13.988281 -21.507812 C 13.988281 -22.609375 14.800781 -22.703125 15.375 -22.703125 C 16 -22.703125 16.574219 -22.609375 17.195312 -22.609375 C 17.914062 -22.609375 18.679688 -22.847656 19.398438 -22.753906 L 20.023438 -22.65625 C 20.742188 -22.5625 21.125 -22.5625 21.410156 -22.5625 C 21.460938 -22.5625 21.507812 -22.5625 21.554688 -22.5625 C 21.792969 -22.5625 22.035156 -22.609375 22.273438 -22.609375 C 22.371094 -22.609375 22.511719 -22.609375 22.609375 -22.609375 C 23.089844 -22.609375 23.566406 -22.511719 24.046875 -22.511719 C 24.859375 -22.511719 25.148438 -22.703125 25.433594 -23.039062 C 25.722656 -23.375 25.960938 -23.855469 25.960938 -24.765625 C 25.960938 -26.585938 25.769531 -25.484375 25.769531 -26.96875 L 25.769531 -28.023438 C 25.769531 -28.597656 25.769531 -28.738281 25.769531 -28.882812 C 25.769531 -29.21875 25.816406 -29.554688 25.816406 -29.890625 C 25.816406 -30.367188 25.722656 -31.183594 24.957031 -31.757812 C 24.667969 -31.949219 24.238281 -32.1875 23.183594 -32.1875 C 22.179688 -32.1875 22.992188 -32.09375 20.742188 -32.046875 C 20.453125 -32.046875 20.167969 -32.046875 19.878906 -32.046875 C 19.207031 -32.046875 18.488281 -31.949219 17.820312 -31.949219 C 17.148438 -31.949219 16.429688 -31.996094 15.757812 -31.996094 C 15.566406 -31.996094 15.375 -31.996094 15.183594 -31.996094 C 14.753906 -31.996094 14.371094 -32.046875 13.9375 -32.046875 C 13.652344 -32.046875 13.316406 -32.046875 13.027344 -32.046875 C 12.40625 -32.046875 11.785156 -32.09375 11.160156 -32.09375 C 9.820312 -32.09375 8.574219 -31.996094 7.425781 -31.996094 C 6.609375 -31.996094 5.796875 -32.238281 4.980469 -32.238281 C 4.789062 -32.238281 3.402344 -32.238281 2.585938 -31.519531 C 2.109375 -31.085938 1.675781 -30.226562 1.722656 -29.171875 Z M 1.914062 -26.203125 "/></g></g></g><g fill="#ffffff" fill-opacity="1"><g transform="translate(328.337467, 51.932234)"><g><path d="M 2.25 -20.691406 C 2.058594 -16.285156 2.058594 -15.28125 2.058594 -14.082031 L 2.109375 -8.671875 C 2.109375 -6.753906 1.964844 -4.886719 1.773438 -2.96875 C 1.722656 -2.730469 1.722656 -2.441406 1.722656 -2.203125 C 1.722656 -1.53125 1.914062 -0.957031 2.203125 -0.621094 C 2.441406 -0.335938 2.96875 0 3.640625 0 L 7.425781 -0.046875 C 8.382812 -0.046875 8.429688 0.046875 12.308594 0.046875 C 13.21875 0.046875 13.554688 -0.046875 13.9375 -0.382812 C 14.226562 -0.621094 14.417969 -0.910156 14.417969 -1.53125 C 14.417969 -1.820312 14.371094 -2.058594 14.320312 -2.347656 C 14.273438 -2.683594 14.226562 -3.066406 14.226562 -3.402344 C 14.226562 -3.449219 14.226562 -3.542969 14.226562 -3.734375 L 14.226562 -4.597656 L 14.273438 -5.363281 C 14.320312 -6.417969 14.320312 -6.65625 14.320312 -6.753906 L 14.226562 -8.191406 C 14.128906 -9.484375 14.320312 -9.867188 14.371094 -10.011719 C 14.5625 -10.441406 14.753906 -10.585938 14.945312 -10.585938 C 15.183594 -10.585938 15.566406 -10.394531 15.757812 -10.203125 C 16.09375 -9.914062 16.140625 -9.628906 16.527344 -9.148438 L 16.859375 -8.71875 C 17.675781 -7.664062 17.101562 -8.046875 18.347656 -6.609375 C 19.496094 -5.316406 19.351562 -5.316406 19.878906 -4.503906 C 21.171875 -2.492188 21.363281 -2.347656 21.601562 -2.109375 C 22.417969 -1.292969 22.800781 -0.574219 23.566406 -0.144531 C 24 0.0976562 24.429688 0.144531 25.816406 0.144531 L 26.203125 0.144531 C 26.777344 0.144531 27.207031 0.0976562 28.070312 0.046875 C 28.738281 0 29.027344 0 29.457031 0 L 30.367188 0 C 30.609375 0 30.753906 0.046875 31.136719 0.0976562 C 31.613281 0.0976562 31.757812 0.144531 31.996094 0.144531 C 32.046875 0.144531 32.046875 0.144531 32.09375 0.144531 C 32.429688 0.144531 32.765625 0.0976562 33.386719 -0.289062 C 33.769531 -0.621094 34.007812 -1.054688 34.058594 -1.582031 C 34.058594 -1.675781 34.058594 -1.820312 34.058594 -1.914062 C 34.058594 -1.964844 34.058594 -2.011719 34.058594 -2.058594 C 34.058594 -2.539062 33.914062 -2.921875 33.867188 -3.59375 L 33.816406 -4.597656 C 33.816406 -4.644531 33.816406 -4.644531 33.816406 -4.695312 C 33.816406 -5.554688 33.816406 -6.417969 33.816406 -7.28125 C 33.816406 -8.8125 33.914062 -10.347656 33.914062 -11.878906 C 33.914062 -11.976562 33.914062 -12.023438 33.914062 -12.117188 C 33.914062 -12.503906 33.867188 -12.980469 33.816406 -14.320312 C 33.722656 -15.566406 33.675781 -15.902344 33.675781 -16.335938 C 33.675781 -17.386719 33.816406 -17.339844 33.867188 -18.871094 C 33.867188 -19.160156 33.867188 -19.398438 33.867188 -19.6875 C 33.867188 -20.070312 33.914062 -20.5 33.914062 -20.882812 C 33.914062 -21.601562 33.816406 -22.417969 33.816406 -23.230469 C 33.816406 -23.566406 33.816406 -23.902344 33.816406 -24.238281 C 33.867188 -27.113281 34.152344 -27.160156 34.105469 -28.882812 C 34.105469 -29.699219 34.007812 -30.609375 33.339844 -31.277344 C 32.765625 -31.855469 32.046875 -32.046875 31.039062 -32.046875 C 30.847656 -32.046875 30.703125 -32.046875 30.511719 -32.046875 C 30.082031 -32.046875 29.746094 -32.046875 28.789062 -31.996094 L 28.023438 -31.949219 C 27.925781 -31.949219 27.78125 -31.949219 27.253906 -31.949219 C 27.015625 -31.949219 26.777344 -31.996094 26.535156 -31.996094 C 26.011719 -32.046875 25.433594 -32.09375 24.90625 -32.09375 L 24.09375 -32.09375 C 23.519531 -32.09375 22.945312 -31.902344 22.753906 -31.804688 C 22.371094 -31.664062 21.652344 -31.136719 21.601562 -29.890625 C 21.601562 -29.792969 21.601562 -29.648438 21.601562 -29.554688 C 21.601562 -29.027344 21.746094 -28.164062 21.746094 -27.304688 L 21.746094 -24.574219 C 21.746094 -24.332031 21.699219 -24.046875 21.746094 -23.804688 C 21.746094 -23.710938 21.792969 -23.566406 21.792969 -23.472656 C 21.84375 -23.230469 21.792969 -23.039062 21.792969 -22.800781 C 21.792969 -22.5625 21.792969 -22.226562 21.601562 -22.035156 C 21.507812 -21.9375 21.269531 -21.84375 21.125 -21.84375 C 20.835938 -21.84375 20.5 -21.984375 20.359375 -22.179688 L 19.207031 -23.710938 C 17.628906 -25.816406 19.015625 -24.332031 17.675781 -26.25 L 16.429688 -28.023438 C 15.949219 -28.691406 16.046875 -28.738281 14.800781 -30.65625 C 14.609375 -30.945312 14.371094 -31.328125 13.84375 -31.664062 C 13.171875 -32.140625 12.550781 -32.1875 11.59375 -32.1875 C 8.863281 -32.1875 9.628906 -31.855469 5.941406 -32.046875 C 4.789062 -32.09375 3.402344 -32.285156 2.730469 -31.664062 C 2.441406 -31.421875 1.964844 -30.703125 1.964844 -29.171875 C 1.964844 -27.445312 2.539062 -26.441406 2.441406 -24.8125 Z M 2.25 -20.691406 "/></g></g></g><g fill="#ffffff" fill-opacity="1"><g transform="translate(364.165736, 51.932234)"><g><path d="M -0.0976562 -24.285156 C -0.144531 -23.230469 0.0976562 -22.847656 0.238281 -22.65625 C 0.671875 -22.035156 1.007812 -21.9375 3.019531 -21.746094 L 4.121094 -21.652344 C 4.597656 -21.601562 5.078125 -21.652344 5.507812 -21.21875 C 5.890625 -20.882812 6.226562 -20.117188 6.179688 -19.304688 L 6.035156 -16.09375 C 6.035156 -15.566406 6.132812 -15.472656 6.132812 -14.515625 C 6.132812 -14.128906 6.132812 -13.699219 5.988281 -12.40625 C 5.746094 -9.675781 5.941406 -9.914062 5.941406 -9.148438 L 5.988281 -6.464844 C 6.035156 -2.875 5.84375 -4.839844 5.84375 -2.109375 C 5.84375 -1.722656 5.84375 -1.292969 6.417969 -0.671875 C 6.898438 -0.144531 7.375 0.046875 8.382812 0.046875 C 9.339844 0.046875 8.957031 0 10.105469 0 L 12.167969 0 C 13.890625 0 14.371094 0.0976562 15.28125 0.0976562 C 17.148438 0.0976562 17.339844 0 17.960938 -0.671875 C 18.441406 -1.199219 18.585938 -1.484375 18.585938 -2.300781 C 18.585938 -2.777344 18.488281 -3.113281 18.441406 -3.402344 C 18.347656 -3.832031 18.25 -4.40625 18.25 -5.03125 L 18.25 -9.578125 C 18.25 -11.640625 18.203125 -13.171875 18.394531 -14.515625 C 18.441406 -14.800781 18.488281 -15.28125 18.488281 -15.808594 C 18.488281 -16.285156 18.394531 -16.476562 18.394531 -18.011719 C 18.394531 -19.542969 18.441406 -20.597656 19.257812 -21.21875 C 19.832031 -21.652344 20.742188 -21.792969 21.507812 -21.792969 C 22.371094 -21.792969 22.320312 -21.652344 23.328125 -21.652344 C 24 -21.652344 24.382812 -21.84375 24.574219 -21.984375 C 25.101562 -22.464844 25.101562 -22.945312 25.101562 -23.230469 C 25.101562 -24.238281 25.003906 -25.195312 24.957031 -26.203125 C 24.957031 -26.632812 24.90625 -27.015625 24.957031 -27.445312 C 25.003906 -27.972656 25.148438 -28.933594 25.148438 -29.792969 C 25.148438 -30.367188 25.003906 -31.085938 24.429688 -31.46875 C 23.902344 -31.855469 22.753906 -32.09375 21.554688 -32.09375 C 17.960938 -32.09375 19.398438 -31.804688 16.957031 -31.855469 L 10.394531 -31.996094 C 8.765625 -32.046875 8.8125 -31.902344 7.042969 -31.902344 L 6.226562 -31.902344 C 6.035156 -31.902344 5.746094 -31.902344 4.789062 -31.996094 C 4.070312 -32.046875 3.257812 -32.1875 2.492188 -32.1875 C 2.203125 -32.1875 1.054688 -32.1875 0.480469 -31.664062 C 0 -31.277344 -0.144531 -30.464844 -0.144531 -29.792969 C -0.144531 -29.507812 -0.0976562 -28.5 -0.046875 -28.070312 C 0 -27.878906 0 -27.78125 0 -27.589844 L 0 -26.679688 Z M -0.0976562 -24.285156 "/></g></g></g><g fill="#ffffff" fill-opacity="1"><g transform="translate(389.120993, 51.932234)"><g><path d="M 6.800781 -16 C 8.382812 -13.460938 9.054688 -11.6875 9.195312 -11.304688 C 9.675781 -10.105469 9.675781 -9.773438 9.773438 -8.765625 C 9.820312 -8.046875 9.820312 -8.09375 9.820312 -6.800781 C 9.820312 -5.316406 9.867188 -4.359375 9.773438 -3.785156 C 9.722656 -3.304688 9.484375 -2.683594 9.484375 -1.914062 C 9.484375 -1.007812 9.675781 -0.765625 9.914062 -0.527344 C 10.105469 -0.335938 10.683594 0.144531 11.6875 0.144531 C 12.742188 0.144531 12.214844 0.046875 13.554688 0.046875 C 14.273438 0.046875 15.039062 0.0976562 15.757812 0.0976562 C 16.957031 0.0976562 17.578125 -0.144531 18.824219 0 C 19.398438 0.046875 19.878906 0.191406 20.40625 0.191406 C 21.460938 0.191406 21.792969 -0.0976562 22.035156 -0.382812 C 22.464844 -0.910156 22.464844 -1.390625 22.464844 -2.300781 C 22.464844 -3.113281 22.179688 -2.777344 22.179688 -4.839844 C 22.179688 -6.226562 22.273438 -9.339844 22.417969 -10.441406 C 22.5625 -11.351562 22.703125 -11.640625 22.992188 -12.214844 C 24.859375 -15.855469 22.945312 -13.027344 28.546875 -21.125 C 29.984375 -23.183594 29.554688 -22.417969 30.082031 -23.519531 C 31.710938 -26.921875 31.46875 -25.722656 32.238281 -27.0625 C 32.570312 -27.636719 32.429688 -27.734375 33.050781 -28.738281 C 33.242188 -29.027344 33.433594 -29.316406 33.53125 -29.601562 C 33.578125 -29.792969 33.675781 -30.226562 33.675781 -30.511719 C 33.675781 -30.894531 33.578125 -31.230469 33.386719 -31.46875 C 32.859375 -32.140625 31.902344 -32.140625 31.328125 -32.140625 C 30.703125 -32.140625 30.128906 -32.046875 29.554688 -31.996094 C 28.835938 -31.949219 28.164062 -31.996094 27.445312 -31.996094 C 25.675781 -31.949219 25.769531 -31.855469 24.8125 -31.949219 C 24.476562 -31.996094 24.191406 -32.046875 23.902344 -32.046875 C 23.230469 -32.046875 22.65625 -31.804688 22.128906 -31.566406 C 21.652344 -31.328125 21.507812 -31.136719 21.316406 -30.894531 C 21.027344 -30.511719 20.835938 -30.082031 20.40625 -29.316406 C 19.542969 -27.734375 18.871094 -27.113281 18.152344 -25.914062 C 16.910156 -23.949219 16.382812 -23.28125 15.949219 -23.28125 C 15.855469 -23.28125 15.566406 -23.375 15.472656 -23.421875 C 15.039062 -23.664062 14.707031 -24.476562 13.652344 -26.535156 C 12.742188 -28.355469 12.453125 -28.835938 12.359375 -28.980469 C 12.167969 -29.265625 12.214844 -29.316406 12.167969 -29.457031 C 11.785156 -31.136719 11.257812 -31.46875 11.160156 -31.566406 C 11.015625 -31.664062 10.394531 -32.09375 10.15625 -32.09375 C 9.628906 -32.09375 9.003906 -31.949219 7.617188 -31.949219 C 7.328125 -31.949219 7.089844 -31.949219 6.800781 -31.949219 C 6.273438 -31.949219 5.699219 -31.949219 5.171875 -31.996094 C 4.980469 -31.996094 4.839844 -32.046875 4.644531 -32.046875 C 4.261719 -32.046875 3.878906 -31.949219 3.496094 -31.949219 C 2.96875 -31.949219 2.492188 -32.09375 1.964844 -32.140625 C 1.773438 -32.140625 1.53125 -32.140625 1.339844 -32.140625 C 0.910156 -32.140625 0 -32.1875 -0.574219 -31.664062 C -0.8125 -31.421875 -1.007812 -30.847656 -1.007812 -30.417969 C -1.007812 -29.507812 -0.382812 -28.644531 -0.0976562 -28.214844 C 1.773438 -25.433594 0.0976562 -26.921875 3.542969 -21.316406 Z M 6.800781 -16 "/></g></g></g><g fill="#ffffff" fill-opacity="1"><g transform="translate(421.692159, 51.932234)"><g><path d="M 1.964844 -4.597656 C 1.964844 -4.359375 1.914062 -4.070312 1.914062 -3.832031 C 1.867188 -3.542969 1.867188 -3.210938 1.867188 -2.921875 C 1.867188 0.0976562 3.929688 0.0976562 4.933594 0.144531 C 5.125 0.144531 5.316406 0.144531 5.507812 0.144531 C 6.035156 0.0976562 6.5625 -0.046875 7.761719 -0.046875 C 7.902344 -0.046875 8.046875 -0.046875 8.191406 -0.046875 C 8.476562 -0.046875 8.8125 -0.046875 9.101562 -0.046875 C 9.484375 -0.046875 9.867188 -0.046875 10.25 -0.046875 C 10.875 -0.046875 11.542969 0 12.167969 0 C 14.753906 0 15.617188 -0.0976562 17.722656 -0.144531 C 17.914062 -0.144531 18.105469 -0.144531 18.296875 -0.144531 C 18.871094 -0.144531 19.113281 0 20.359375 0 C 22.035156 0 22.753906 -1.292969 22.753906 -2.875 C 22.753906 -3.785156 22.609375 -4.644531 22.609375 -5.554688 C 22.609375 -6.851562 22.65625 -8.09375 22.703125 -9.386719 C 22.703125 -9.578125 22.703125 -9.773438 22.703125 -9.964844 C 22.65625 -11.066406 21.984375 -12.40625 20.980469 -12.40625 C 20.453125 -12.40625 19.972656 -12.308594 19.449219 -12.308594 C 19.0625 -12.308594 18.679688 -12.453125 18.25 -12.453125 C 17.148438 -12.453125 16.574219 -12.308594 16 -12.308594 C 14.082031 -12.308594 13.9375 -14.273438 13.9375 -15.039062 C 13.9375 -15.757812 13.988281 -16.429688 13.988281 -17.148438 C 13.988281 -17.386719 13.988281 -17.628906 13.988281 -17.867188 C 13.988281 -18.296875 13.9375 -18.730469 13.9375 -19.160156 C 13.9375 -19.304688 13.9375 -19.449219 13.9375 -19.589844 C 13.9375 -21.21875 13.988281 -21.601562 14.082031 -22.082031 C 14.128906 -22.753906 14.128906 -23.039062 14.128906 -24.574219 C 14.128906 -25.292969 14.128906 -26.011719 14.128906 -26.726562 C 14.128906 -27.207031 14.128906 -27.6875 14.128906 -28.164062 C 14.128906 -28.453125 14.128906 -28.738281 14.128906 -29.027344 C 14.082031 -30.558594 13.796875 -32.09375 10.585938 -32.09375 C 10.394531 -32.09375 10.203125 -32.09375 9.246094 -31.996094 C 8.191406 -31.949219 8.621094 -31.855469 7.761719 -31.855469 C 7.136719 -31.855469 6.082031 -31.996094 4.789062 -31.996094 C 2.011719 -31.996094 1.820312 -30.992188 1.820312 -25.769531 C 1.820312 -24.621094 1.914062 -23.472656 1.914062 -22.320312 C 1.914062 -22.035156 1.914062 -21.746094 1.914062 -21.460938 C 1.914062 -20.40625 1.773438 -19.351562 1.773438 -18.296875 C 1.773438 -18.058594 1.773438 -17.820312 1.773438 -17.578125 C 1.773438 -16.910156 1.722656 -16.238281 1.722656 -15.566406 C 1.722656 -15.230469 1.722656 -14.945312 1.722656 -14.609375 C 1.773438 -11.6875 1.964844 -12.359375 1.964844 -9.867188 Z M 1.964844 -4.597656 "/></g></g></g><g fill="#ffffff" fill-opacity="1"><g transform="translate(444.53986, 51.932234)"><g><path d="M 4.839844 -22.371094 C 3.929688 -19.832031 4.023438 -19.207031 3.734375 -17.722656 C 3.496094 -16.527344 3.113281 -15.328125 2.632812 -13.796875 C 2.109375 -12.167969 2.109375 -12.023438 1.820312 -11.113281 C 1.675781 -10.730469 1.390625 -9.964844 1.148438 -9.148438 C 0.574219 -7.375 0.382812 -6.417969 0.238281 -5.84375 C 0 -4.886719 -0.191406 -4.597656 -0.382812 -4.070312 C -0.527344 -3.640625 -0.621094 -3.160156 -0.621094 -2.683594 C -0.621094 -1.628906 -0.289062 -0.957031 0.0976562 -0.621094 C 0.910156 0.144531 2.300781 -0.046875 3.402344 0 L 6.226562 0.0976562 L 7.234375 0.0976562 C 9.148438 0.0976562 7.855469 -0.046875 9.484375 0 C 9.722656 0 9.964844 0.046875 10.203125 0 C 10.441406 -0.046875 10.921875 -0.238281 11.113281 -0.429688 C 11.304688 -0.574219 11.398438 -0.863281 11.832031 -1.628906 L 12.597656 -2.96875 C 12.644531 -3.019531 12.695312 -3.113281 12.742188 -3.160156 C 12.789062 -3.210938 12.789062 -3.257812 12.835938 -3.304688 C 13.125 -3.6875 13.699219 -3.734375 14.128906 -3.734375 C 14.417969 -3.734375 14.5625 -3.6875 15.566406 -3.640625 L 17.195312 -3.542969 C 18.488281 -3.449219 19.589844 -3.929688 20.742188 -3.496094 C 21.554688 -3.210938 21.792969 -2.683594 22.082031 -2.109375 L 22.464844 -1.292969 C 22.894531 -0.335938 23.472656 -0.046875 23.804688 0.046875 C 24.382812 0.191406 25.675781 -0.046875 27.6875 0 L 30.609375 0.046875 C 30.800781 0.046875 30.945312 0.046875 31.136719 0.046875 C 31.328125 0.046875 31.519531 0.0976562 31.710938 0.0976562 C 31.855469 0.0976562 31.949219 0.0976562 32.09375 0.0976562 C 33.433594 0.046875 33.722656 -0.289062 33.960938 -0.71875 C 34.296875 -1.246094 34.25 -1.339844 34.25 -1.722656 C 34.25 -1.820312 34.25 -1.964844 34.25 -2.058594 C 34.25 -2.25 34.105469 -2.875 33.914062 -3.402344 C 33.769531 -3.6875 33.675781 -3.929688 33.53125 -4.40625 C 33.433594 -4.695312 33.339844 -4.933594 33.289062 -5.171875 C 32.859375 -6.707031 32.667969 -8.285156 32.140625 -9.820312 L 31.855469 -10.683594 C 31.328125 -12.308594 31.183594 -12.835938 30.894531 -14.226562 C 30.320312 -16.8125 30.226562 -17.195312 30.128906 -17.53125 L 29.9375 -18.058594 C 29.648438 -18.871094 29.746094 -18.679688 29.554688 -19.0625 C 29.507812 -19.160156 29.457031 -19.257812 29.410156 -19.351562 C 29.363281 -19.589844 29.316406 -19.6875 29.074219 -20.742188 L 28.597656 -22.65625 C 28.355469 -23.613281 27.972656 -24.574219 27.589844 -25.484375 C 27.351562 -26.058594 27.113281 -26.679688 26.96875 -27.304688 L 26.726562 -28.261719 C 26.394531 -29.507812 26.105469 -30.609375 25.242188 -31.230469 C 24.332031 -31.902344 23.089844 -31.996094 22.464844 -31.996094 C 21.984375 -31.996094 21.460938 -31.949219 20.980469 -31.949219 C 20.359375 -31.949219 18.632812 -31.949219 17.867188 -31.996094 L 17.050781 -32.046875 L 15.566406 -32.09375 C 15.183594 -32.09375 14.847656 -32.046875 14.464844 -32.046875 C 14.128906 -32.046875 13.746094 -31.996094 13.410156 -31.996094 C 11.398438 -31.855469 13.21875 -32.09375 10.730469 -31.996094 C 9.773438 -31.949219 8.957031 -31.902344 8.285156 -31.421875 C 7.425781 -30.800781 6.992188 -29.648438 6.898438 -29.316406 C 6.324219 -27.542969 5.796875 -25.101562 5.460938 -24.140625 Z M 15.566406 -13.84375 C 15.28125 -13.84375 14.898438 -13.890625 14.65625 -14.273438 C 14.515625 -14.515625 14.515625 -14.945312 14.515625 -15.089844 C 14.515625 -15.472656 14.707031 -15.617188 14.898438 -16.476562 C 15.039062 -17.050781 15.089844 -17.578125 15.230469 -18.058594 C 15.375 -18.539062 15.566406 -19.0625 15.808594 -19.832031 C 15.902344 -20.214844 16.046875 -20.742188 16.285156 -20.933594 C 16.335938 -20.980469 16.574219 -21.171875 16.859375 -21.171875 C 17.050781 -21.171875 17.292969 -21.125 17.484375 -20.933594 C 17.675781 -20.742188 17.914062 -20.308594 18.011719 -20.070312 C 18.152344 -19.640625 18.824219 -17.195312 18.921875 -16.71875 L 19.207031 -15.472656 C 19.304688 -15.089844 19.398438 -14.707031 19.113281 -14.320312 C 18.824219 -13.988281 18.394531 -13.84375 16.71875 -13.84375 Z M 15.566406 -13.84375 "/></g></g></g><g fill="#ffffff" fill-opacity="1"><g transform="translate(477.925308, 51.932234)"><g><path d="M 23.613281 -6.945312 C 23.613281 -7.617188 23.710938 -8.671875 23.710938 -9.246094 C 23.710938 -9.867188 23.664062 -10.777344 23.230469 -11.351562 C 22.703125 -12.070312 21.652344 -12.167969 21.460938 -12.167969 C 21.316406 -12.167969 21.21875 -12.167969 21.074219 -12.167969 C 20.644531 -12.117188 18.539062 -11.832031 17.960938 -11.734375 C 17.101562 -11.734375 15.808594 -11.878906 15.039062 -12.261719 C 13.125 -13.171875 12.835938 -15.28125 12.835938 -16.285156 C 12.835938 -17.4375 13.554688 -18.488281 14.226562 -19.015625 C 14.609375 -19.304688 15.183594 -19.6875 16.09375 -19.78125 C 16.957031 -19.878906 17.292969 -19.734375 18.441406 -19.832031 L 19.925781 -19.925781 C 20.644531 -19.972656 20.597656 -19.78125 21.699219 -19.78125 C 22.226562 -19.78125 22.65625 -19.878906 23.039062 -20.308594 C 24 -21.363281 23.328125 -23.089844 23.328125 -25.433594 L 23.328125 -26.632812 C 23.328125 -27.636719 23.472656 -27.78125 23.519531 -29.21875 C 23.519531 -29.457031 23.519531 -29.648438 23.519531 -29.890625 C 23.519531 -30.464844 23.421875 -30.703125 23.375 -30.847656 C 22.703125 -32.378906 18.679688 -32.09375 17.101562 -32.09375 C 12.644531 -32.09375 10.011719 -31.375 8.863281 -30.800781 C 7.761719 -30.273438 5.605469 -28.789062 4.261719 -27.351562 C 3.542969 -26.535156 2.730469 -25.53125 1.339844 -21.84375 C 1.148438 -21.269531 0.527344 -19.832031 0.527344 -17.339844 C 0.527344 -15.472656 1.101562 -11.015625 1.675781 -9.246094 C 2.25 -7.566406 2.96875 -6.851562 4.550781 -4.742188 C 6.035156 -2.730469 6.5625 -2.394531 7.855469 -1.675781 C 9.101562 -1.007812 11.59375 0.191406 17.386719 0.289062 C 17.578125 0.289062 17.722656 0.289062 17.914062 0.289062 C 21.269531 0.238281 22.226562 -0.0976562 23.089844 -0.910156 C 23.804688 -1.628906 23.855469 -2.15625 23.855469 -2.441406 C 23.855469 -2.539062 23.804688 -2.632812 23.804688 -2.730469 C 23.804688 -2.921875 23.804688 -3.066406 23.804688 -3.257812 C 23.855469 -4.023438 23.613281 -4.839844 23.613281 -5.605469 Z M 23.613281 -6.945312 "/></g></g></g><g fill="#ffffff" fill-opacity="1"><g transform="translate(502.593145, 51.932234)"><g><path d="M 12.644531 -32.046875 C 8.910156 -31.949219 8 -32.140625 7.183594 -31.949219 C 5.84375 -31.664062 5.652344 -30.800781 5.652344 -30.128906 C 5.652344 -28.40625 5.890625 -27.832031 5.890625 -27.207031 C 5.890625 -26.585938 5.84375 -26.058594 5.796875 -25.292969 C 5.746094 -24.765625 5.746094 -24.191406 5.796875 -23.664062 C 5.84375 -23.230469 5.890625 -22.847656 5.890625 -22.417969 C 5.890625 -22.128906 5.890625 -21.84375 5.890625 -21.554688 C 5.890625 -20.261719 5.84375 -20.359375 5.796875 -19.972656 C 5.796875 -19.734375 5.796875 -19.542969 5.796875 -19.207031 C 5.941406 -16.429688 5.988281 -15.902344 5.988281 -15.28125 C 5.988281 -11.832031 4.023438 -11.976562 3.785156 -11.976562 C 3.304688 -11.976562 2.539062 -12.261719 2.109375 -12.261719 C 1.722656 -12.261719 -0.289062 -12.070312 -0.289062 -9.195312 C -0.289062 -7.664062 -0.144531 -7.042969 -0.144531 -6.65625 C -0.144531 -5.941406 -0.289062 -4.695312 -0.289062 -3.113281 C -0.289062 -2.683594 -0.335938 0.238281 2.824219 0.238281 C 3.59375 0.238281 4.40625 0.0976562 5.171875 0.046875 C 5.746094 0 6.324219 0.046875 6.898438 0.046875 C 7.234375 0.046875 7.617188 0 7.953125 0 C 9.292969 0 8.621094 0.144531 9.914062 0.144531 C 10.824219 0.144531 13.699219 0.191406 15.472656 -1.773438 C 17.675781 -4.167969 18.011719 -6.464844 18.105469 -9.578125 C 18.105469 -10.203125 18.105469 -10.777344 18.105469 -11.398438 C 18.058594 -13.078125 17.960938 -14.035156 17.914062 -15.328125 C 17.867188 -15.902344 17.867188 -16.476562 17.914062 -17.050781 C 17.960938 -17.339844 18.011719 -17.675781 18.011719 -17.960938 C 18.011719 -18.152344 18.011719 -18.347656 18.011719 -18.539062 C 18.011719 -19.734375 18.058594 -20.980469 18.011719 -22.179688 C 18.011719 -22.753906 17.914062 -23.328125 17.914062 -23.902344 C 17.914062 -27.207031 18.105469 -27.78125 18.105469 -29.84375 C 18.105469 -32.476562 15.328125 -32.140625 14.179688 -32.09375 Z M 12.644531 -32.046875 "/></g></g></g><g fill="#ffffff" fill-opacity="1"><g transform="translate(521.896349, 51.932234)"><g><path d="M 1.914062 -26.203125 C 1.914062 -26.011719 1.914062 -25.003906 1.914062 -24.8125 C 1.867188 -23.28125 1.722656 -23.902344 1.722656 -21.9375 C 1.722656 -19.972656 1.867188 -19.304688 1.914062 -17.960938 C 2.011719 -16.285156 1.773438 -17.578125 2.058594 -14.082031 C 2.15625 -13.21875 2.15625 -11.976562 2.15625 -11.257812 C 2.15625 -10.539062 2.011719 -9.820312 2.011719 -8.957031 L 1.867188 -3.6875 C 1.867188 -3.304688 1.867188 -2.921875 1.820312 -2.539062 C 1.820312 -2.300781 1.773438 -2.109375 1.773438 -1.867188 C 1.773438 -0.957031 1.964844 -0.621094 2.300781 -0.335938 C 2.730469 0.046875 3.113281 0.191406 3.878906 0.191406 C 3.976562 0.191406 4.023438 0.191406 4.121094 0.191406 C 6.753906 0.144531 6.324219 0 7.902344 0 L 11.878906 0.046875 C 12.550781 0.046875 14.179688 0.046875 14.992188 0 C 15.425781 0 15.902344 -0.046875 16.335938 0 C 16.957031 0.046875 17.675781 0.191406 18.441406 0.191406 C 18.679688 0.191406 18.921875 0.144531 19.160156 0.144531 C 19.496094 0.144531 19.832031 0.144531 20.214844 0.0976562 C 21.792969 0.046875 20.40625 -0.0976562 21.792969 -0.0976562 L 22.511719 -0.0976562 C 23.089844 -0.0976562 22.65625 0 23.902344 0.046875 C 24.285156 0.046875 24.621094 0.0976562 25.003906 0.046875 C 26.535156 -0.046875 27.160156 -0.71875 26.921875 -4.839844 L 26.871094 -5.746094 C 26.824219 -6.898438 26.921875 -5.796875 26.921875 -7.234375 C 26.921875 -7.710938 26.824219 -8.910156 26.011719 -9.628906 C 25.578125 -10.011719 25.101562 -10.058594 24.621094 -10.058594 C 24.476562 -10.058594 24.285156 -10.058594 24.140625 -10.058594 C 23.902344 -10.058594 23.613281 -10.011719 23.375 -10.011719 C 23.089844 -10.011719 22.800781 -10.011719 22.511719 -10.011719 L 21.363281 -10.011719 C 20.453125 -10.011719 19.398438 -9.964844 18.632812 -9.914062 C 18.105469 -9.867188 17.386719 -9.773438 16.527344 -9.773438 C 16 -9.773438 15.375 -9.820312 14.898438 -10.203125 C 14.515625 -10.488281 14.417969 -10.875 14.417969 -11.113281 C 14.417969 -11.304688 14.5625 -11.59375 14.707031 -11.785156 C 14.847656 -11.925781 15.183594 -12.214844 15.710938 -12.214844 C 15.855469 -12.214844 16.046875 -12.167969 16.191406 -12.167969 C 16.527344 -12.117188 16.8125 -12.167969 17.148438 -12.167969 L 19.351562 -12.117188 C 21.363281 -12.070312 21.21875 -12.261719 23.28125 -12.308594 C 23.613281 -12.308594 23.902344 -12.308594 24.238281 -12.308594 C 24.765625 -12.308594 25.003906 -12.40625 25.292969 -12.695312 C 25.625 -12.980469 25.769531 -13.269531 25.769531 -14.035156 C 25.769531 -14.417969 25.722656 -14.707031 25.675781 -14.992188 C 25.578125 -15.519531 25.625 -15.664062 25.625 -15.949219 L 25.53125 -18.585938 C 25.53125 -18.824219 25.484375 -19.304688 25.148438 -19.878906 C 24.765625 -20.5 24.046875 -20.550781 23.421875 -20.550781 C 22.703125 -20.550781 21.9375 -20.40625 21.21875 -20.40625 C 20.40625 -20.40625 19.542969 -20.453125 18.730469 -20.40625 C 18.011719 -20.359375 17.914062 -20.308594 17.4375 -20.261719 C 17.148438 -20.261719 16.910156 -20.261719 16.621094 -20.261719 C 15.808594 -20.261719 14.898438 -20.214844 14.371094 -20.597656 C 14.035156 -20.835938 13.988281 -21.171875 13.988281 -21.507812 C 13.988281 -22.609375 14.800781 -22.703125 15.375 -22.703125 C 16 -22.703125 16.574219 -22.609375 17.195312 -22.609375 C 17.914062 -22.609375 18.679688 -22.847656 19.398438 -22.753906 L 20.023438 -22.65625 C 20.742188 -22.5625 21.125 -22.5625 21.410156 -22.5625 C 21.460938 -22.5625 21.507812 -22.5625 21.554688 -22.5625 C 21.792969 -22.5625 22.035156 -22.609375 22.273438 -22.609375 C 22.371094 -22.609375 22.511719 -22.609375 22.609375 -22.609375 C 23.089844 -22.609375 23.566406 -22.511719 24.046875 -22.511719 C 24.859375 -22.511719 25.148438 -22.703125 25.433594 -23.039062 C 25.722656 -23.375 25.960938 -23.855469 25.960938 -24.765625 C 25.960938 -26.585938 25.769531 -25.484375 25.769531 -26.96875 L 25.769531 -28.023438 C 25.769531 -28.597656 25.769531 -28.738281 25.769531 -28.882812 C 25.769531 -29.21875 25.816406 -29.554688 25.816406 -29.890625 C 25.816406 -30.367188 25.722656 -31.183594 24.957031 -31.757812 C 24.667969 -31.949219 24.238281 -32.1875 23.183594 -32.1875 C 22.179688 -32.1875 22.992188 -32.09375 20.742188 -32.046875 C 20.453125 -32.046875 20.167969 -32.046875 19.878906 -32.046875 C 19.207031 -32.046875 18.488281 -31.949219 17.820312 -31.949219 C 17.148438 -31.949219 16.429688 -31.996094 15.757812 -31.996094 C 15.566406 -31.996094 15.375 -31.996094 15.183594 -31.996094 C 14.753906 -31.996094 14.371094 -32.046875 13.9375 -32.046875 C 13.652344 -32.046875 13.316406 -32.046875 13.027344 -32.046875 C 12.40625 -32.046875 11.785156 -32.09375 11.160156 -32.09375 C 9.820312 -32.09375 8.574219 -31.996094 7.425781 -31.996094 C 6.609375 -31.996094 5.796875 -32.238281 4.980469 -32.238281 C 4.789062 -32.238281 3.402344 -32.238281 2.585938 -31.519531 C 2.109375 -31.085938 1.675781 -30.226562 1.722656 -29.171875 Z M 1.914062 -26.203125 "/></g></g></g><g fill="#ffffff" fill-opacity="1"><g transform="translate(550.015185, 51.932234)"><g/></g></g><g fill="#ffffff" fill-opacity="1"><g transform="translate(550.015185, 51.932234)"><g/></g></g><g fill="#ffffff" fill-opacity="1"><g transform="translate(561.181639, 51.932234)"><g/></g></g></g></g></svg>
